<?xml version="1.0" encoding="UTF-8"?>
<!DOCTYPE svg PUBLIC "-//W3C//DTD SVG 1.1//EN" "http://www.w3.org/Graphics/SVG/1.1/DTD/svg11.dtd">
<svg xmlns="http://www.w3.org/2000/svg" version="1.1" width="512px" height="512px" style="shape-rendering:geometricPrecision; text-rendering:geometricPrecision; image-rendering:optimizeQuality; fill-rule:evenodd; clip-rule:evenodd" xmlns:xlink="http://www.w3.org/1999/xlink">
<g><path style="opacity:1" fill="#259cf2" d="M 232.5,-0.5 C 247.833,-0.5 263.167,-0.5 278.5,-0.5C 368.144,10.3879 435.644,54.7213 481,132.5C 497.695,163.971 507.861,197.304 511.5,232.5C 511.5,247.833 511.5,263.167 511.5,278.5C 500.612,368.144 456.279,435.644 378.5,481C 347.029,497.695 313.696,507.861 278.5,511.5C 263.167,511.5 247.833,511.5 232.5,511.5C 142.856,500.612 75.3562,456.279 30,378.5C 13.3053,347.029 3.1386,313.696 -0.5,278.5C -0.5,263.167 -0.5,247.833 -0.5,232.5C 10.3875,142.857 54.7208,75.3573 132.5,30C 163.971,13.3053 197.304,3.1386 232.5,-0.5 Z"/></g>
<g><path style="opacity:1" fill="#f9f9f9" d="M 241.5,115.5 C 251.878,115.196 262.211,115.696 272.5,117C 284.51,121.518 292.01,130.018 295,142.5C 295.667,217.833 295.667,293.167 295,368.5C 291.271,383.563 281.771,392.397 266.5,395C 257.121,395.816 247.787,395.483 238.5,394C 225.923,389.025 218.423,379.859 216,366.5C 215.333,291.833 215.333,217.167 216,142.5C 219.577,128.759 228.077,119.759 241.5,115.5 Z"/></g>
<g><path style="opacity:1" fill="#f9f9f9" d="M 340.5,153.5 C 350.506,153.334 360.506,153.5 370.5,154C 383.342,157.509 391.509,165.675 395,178.5C 395.667,241.833 395.667,305.167 395,368.5C 392.167,383.333 383.333,392.167 368.5,395C 359.167,395.667 349.833,395.667 340.5,395C 326.82,391.318 318.653,382.485 316,368.5C 315.333,305.167 315.333,241.833 316,178.5C 319.692,165.643 327.858,157.309 340.5,153.5 Z"/></g>
<g><path style="opacity:1" fill="#f9f9fa" d="M 135.5,231.5 C 148.837,231.333 162.171,231.5 175.5,232C 185.64,234.807 192.14,241.307 195,251.5C 195.667,292.167 195.667,332.833 195,373.5C 192.5,385.333 185.333,392.5 173.5,395C 159.764,395.945 146.097,395.612 132.5,394C 124.178,390.345 118.678,384.178 116,375.5C 115.333,333.833 115.333,292.167 116,250.5C 119.121,240.544 125.621,234.21 135.5,231.5 Z"/></g>
</svg>
